<?xml version="1.0" standalone="no"?>
<!DOCTYPE svg PUBLIC "-//W3C//DTD SVG 20010904//EN"
 "http://www.w3.org/TR/2001/REC-SVG-20010904/DTD/svg10.dtd">
<svg version="1.0" xmlns="http://www.w3.org/2000/svg"
 width="500.000000pt" height="500.000000pt" viewBox="0 0 500.000000 500.000000"
 preserveAspectRatio="xMidYMid meet">

<g transform="translate(0.000000,500.000000) scale(0.100000,-0.100000)"
fill="#000000" stroke="none">
<path d="M2220 4945 c-406 -53 -747 -178 -1073 -392 -305 -200 -570 -476 -756
-788 -251 -422 -379 -946 -342 -1412 7 -87 19 -192 27 -233 8 -41 18 -101 23
-132 32 -197 212 -639 312 -767 11 -13 19 -29 19 -35 0 -7 8 -21 18 -32 9 -11
33 -42 51 -69 19 -28 37 -52 41 -55 3 -3 25 -32 49 -64 60 -80 346 -366 367
-366 6 0 15 -7 74 -60 25 -22 50 -40 56 -40 6 0 17 -7 24 -15 7 -9 42 -32 77
-53 36 -20 86 -50 111 -65 64 -38 181 -92 337 -156 88 -37 307 -98 395 -111
47 -7 98 -16 114 -21 91 -28 526 -34 641 -9 22 5 65 11 95 15 102 11 353 71
402 96 10 5 23 9 30 9 7 0 36 11 63 25 28 13 56 25 63 25 7 0 20 4 30 10 14 7
100 50 269 134 13 6 23 14 23 19 0 4 6 7 14 7 8 0 16 3 18 8 2 4 15 14 29 22
43 24 132 86 158 109 13 12 27 21 30 21 6 0 21 13 140 118 78 69 107 98 180
182 31 36 63 72 71 80 8 8 26 31 40 50 13 19 28 40 32 45 32 40 98 137 98 143
0 5 9 18 20 30 26 27 138 251 188 372 89 221 154 502 174 756 13 161 1 401
-27 549 -8 44 -20 105 -25 135 -20 108 -67 259 -125 400 -155 375 -390 698
-696 956 -366 309 -843 511 -1331 564 -127 13 -408 11 -528 -5z m1483 -1557
c9 -998 8 -1483 -2 -1581 -26 -250 -269 -447 -550 -447 -121 0 -270 51 -340
116 -14 13 -28 24 -31 24 -15 0 -80 101 -99 154 -25 67 -29 168 -11 237 42
156 198 300 372 345 68 18 220 24 281 11 l37 -8 0 516 c0 454 -2 515 -15 515
-9 0 -118 -11 -243 -25 -416 -46 -815 -122 -954 -182 l-38 -16 0 -809 c0 -772
-1 -811 -19 -866 -76 -224 -278 -363 -531 -364 -164 -1 -290 51 -390 160 -253
275 -40 688 377 732 49 5 109 5 149 -1 37 -5 68 -8 70 -7 1 2 5 437 9 968 4
531 8 966 9 967 5 5 249 74 396 111 468 121 884 194 1275 225 22 2 85 4 141 5
l101 2 6 -782z"/>
</g>
</svg>
